HIERARCHY
ROOT hip
{
  OFFSET 0 0 0
  CHANNELS 6 Xposition Yposition Zposition Zrotation Yrotation Xrotation
  JOINT abdomen
  {
    OFFSET 0 20.6881 -0.73152
    CHANNELS 3 Zrotation Xrotation Yrotation
    JOINT chest
    {
      OFFSET 0 11.7043 -0.48768
      CHANNELS 3 Zrotation Xrotation Yrotation
      JOINT neck
      {
        OFFSET 0 22.1894 -2.19456
        CHANNELS 3 Zrotation Xrotation Yrotation
        JOINT head
        {
          OFFSET -0.24384 7.07133 1.2192
          CHANNELS 3 Zrotation Xrotation Yrotation
          JOINT leftEye
          {
            OFFSET 4.14528 8.04674 8.04672
            CHANNELS 3 Zrotation Xrotation Yrotation
            End Site
            {
              OFFSET 1 0 0
            }
          }
          JOINT rightEye
          {
            OFFSET -3.6576 8.04674 8.04672
            CHANNELS 3 Zrotation Xrotation Yrotation
            End Site
            {
              OFFSET 1 0 0
            }
          }
        }
      }
      JOINT rCollar
      {
        OFFSET -2.68224 19.2634 -4.8768
        CHANNELS 3 Zrotation Xrotation Yrotation
        JOINT rShldr
        {
          OFFSET -8.77824 -1.95073 1.46304
          CHANNELS 3 Zrotation Xrotation Yrotation
          JOINT rForeArm
          {
            OFFSET -28.1742 -1.7115 0.48768
            CHANNELS 3 Zrotation Xrotation Yrotation
            JOINT rHand
            {
              OFFSET -22.5879 0.773209 7.07136
              CHANNELS 3 Zrotation Xrotation Yrotation
              JOINT rThumb1
              {
                OFFSET -1.2192 -0.487915 3.41376
                CHANNELS 3 Zrotation Xrotation Yrotation
                JOINT rThumb2
                {
                  OFFSET -3.37035 -0.52449 3.41376
                  CHANNELS 3 Zrotation Xrotation Yrotation
                  End Site
                  {
                    OFFSET -1.78271 -1.18214 1.43049
                  }
                }
              }
              JOINT rIndex1
              {
                OFFSET -7.75947 0.938293 5.60832
                CHANNELS 3 Zrotation Xrotation Yrotation
                JOINT rIndex2
                {
                  OFFSET -2.54057 -0.884171 1.56538
                  CHANNELS 3 Zrotation Xrotation Yrotation
                  End Site
                  {
                    OFFSET -1.62519 -0.234802 1.16502
                  }
                }
              }
              JOINT rMid1
              {
                OFFSET -8.24714 1.18213 3.41376
                CHANNELS 3 Zrotation Xrotation Yrotation
                JOINT rMid2
                {
                  OFFSET -3.10165 -0.590103 1.0647
                  CHANNELS 3 Zrotation Xrotation Yrotation
                  End Site
                  {
                    OFFSET -2.48547 -0.328903 0.83742
                  }
                }
              }
              JOINT rRing1
              {
                OFFSET -8.82822 0.546677 1.51678
                CHANNELS 3 Zrotation Xrotation Yrotation
                JOINT rRing2
                {
                  OFFSET -2.60934 -0.819778 -0.0198488
                  CHANNELS 3 Zrotation Xrotation Yrotation
                  End Site
                  {
                    OFFSET -2.33842 -0.294052 0.168128
                  }
                }
              }
              JOINT rPinky1
              {
                OFFSET -8.27202 -0.0477905 -0.4584
                CHANNELS 3 Zrotation Xrotation Yrotation
                JOINT rPinky2
                {
                  OFFSET -1.82734 -0.647385 -0.700984
                  CHANNELS 3 Zrotation Xrotation Yrotation
                  End Site
                  {
                    OFFSET -1.69225 -0.51767 -0.607171
                  }
                }
              }
            }
          }
        }
      }
      JOINT lCollar
      {
        OFFSET 2.68224 19.2634 -4.8768
        CHANNELS 3 Zrotation Xrotation Yrotation
        JOINT lShldr
        {
          OFFSET 8.77824 -1.95073 1.46304
          CHANNELS 3 Zrotation Xrotation Yrotation
          JOINT lForeArm
          {
            OFFSET 28.1742 -1.7115 0.48768
            CHANNELS 3 Zrotation Xrotation Yrotation
            JOINT lHand
            {
              OFFSET 22.5879 0.773209 7.07136
              CHANNELS 3 Zrotation Xrotation Yrotation
              JOINT lThumb1
              {
                OFFSET 1.2192 -0.487915 3.41376
                CHANNELS 3 Zrotation Xrotation Yrotation
                JOINT lThumb2
                {
                  OFFSET 3.37035 -0.52449 3.41376
                  CHANNELS 3 Zrotation Xrotation Yrotation
                  End Site
                  {
                    OFFSET 1.78271 -1.18214 1.43049
                  }
                }
              }
              JOINT lIndex1
              {
                OFFSET 7.75947 0.938293 5.60832
                CHANNELS 3 Zrotation Xrotation Yrotation
                JOINT lIndex2
                {
                  OFFSET 2.54057 -0.884171 1.56538
                  CHANNELS 3 Zrotation Xrotation Yrotation
                  End Site
                  {
                    OFFSET 1.62519 -0.234802 1.16502
                  }
                }
              }
              JOINT lMid1
              {
                OFFSET 8.24714 1.18213 3.41376
                CHANNELS 3 Zrotation Xrotation Yrotation
                JOINT lMid2
                {
                  OFFSET 3.10165 -0.590103 1.0647
                  CHANNELS 3 Zrotation Xrotation Yrotation
                  End Site
                  {
                    OFFSET 2.48547 -0.328903 0.83742
                  }
                }
              }
              JOINT lRing1
              {
                OFFSET 8.82822 0.546677 1.51678
                CHANNELS 3 Zrotation Xrotation Yrotation
                JOINT lRing2
                {
                  OFFSET 2.60934 -0.819778 -0.0198488
                  CHANNELS 3 Zrotation Xrotation Yrotation
                  End Site
                  {
                    OFFSET 2.33842 -0.294052 0.168128
                  }
                }
              }
              JOINT lPinky1
              {
                OFFSET 8.27202 -0.0477905 -0.4584
                CHANNELS 3 Zrotation Xrotation Yrotation
                JOINT lPinky2
                {
                  OFFSET 1.82734 -0.647385 -0.700984
                  CHANNELS 3 Zrotation Xrotation Yrotation
                  End Site
                  {
                    OFFSET 1.69225 -0.51767 -0.607171
                  }
                }
              }
            }
          }
        }
      }
    }
  }
  JOINT rButtock
  {
    OFFSET -8.77824 4.35084 1.2192
    CHANNELS 3 Zrotation Xrotation Yrotation
    JOINT rThigh
    {
      OFFSET 0 -1.70687 -2.19456
      CHANNELS 3 Zrotation Xrotation Yrotation
      JOINT rShin
      {
        OFFSET 0 -36.8199 0.73152
        CHANNELS 3 Zrotation Xrotation Yrotation
        JOINT rFoot
        {
          OFFSET 0.73152 -45.1104 -5.12064
          CHANNELS 3 Zrotation Xrotation Yrotation
          End Site
          {
            OFFSET -1.1221 -3.69964 12.103
          }
        }
      }
    }
  }
  JOINT lButtock
  {
    OFFSET 8.77824 4.35084 1.2192
    CHANNELS 3 Zrotation Xrotation Yrotation
    JOINT lThigh
    {
      OFFSET 0 -1.70687 -2.19456
      CHANNELS 3 Zrotation Xrotation Yrotation
      JOINT lShin
      {
        OFFSET 0 -36.8199 0.73152
        CHANNELS 3 Zrotation Xrotation Yrotation
        JOINT lFoot
        {
          OFFSET -0.73152 -45.1104 -5.12064
          CHANNELS 3 Zrotation Xrotation Yrotation
          End Site
          {
            OFFSET 1.1221 -3.69964 12.103
          }
        }
      }
    }
  }
}
MOTION
Frames:	6
Frame Time:	0.00833333
47.5508 85.5069 -170.527 0.0 0.0 0.0 2.23595 -0.000458444 0.0604502 0.615881 0.00897667 0.106605 8.30768e-15 0.0 1.73937e-16 2.59818e-14 3.18055e-15 4.93856e-16 -0.0 0.0 0.0 -0.0 0.0 0.0 4.12315e-15 -7.64855e-17 2.98177e-16 9.1859e-14 -1.26104e-15 2.5842e-15 1.54128e-12 -5.09286e-13 2.22639e-14 1.76531e-11 2.12849e-13 3.14875e-13 4.1621e-11 -6.46886e-13 7.53791e-13 7.18642e-11 -1.11319e-12 1.30959e-12 4.16247e-11 -6.4605e-13 7.56972e-13 7.73091 5.47488 0.417314 4.16203e-11 -6.47541e-13 7.66514e-13 2.90554 0.965183 0.102902 4.16264e-11 -6.47342e-13 7.57767e-13 10.2786 0.731801 0.0259123 4.16178e-11 -6.44857e-13 7.66514e-13 2.22167 -0.733487 -0.20892 3.92791e-15 -7.99798e-17 -1.49089e-16 8.94904e-14 -1.04983e-15 1.39149e-15 1.54744e-12 4.13671e-13 9.54166e-15 1.764e-11 -7.18209e-13 3.56222e-13 4.16165e-11 -6.68432e-13 7.66514e-13 7.18702e-11 -1.15454e-12 1.31834e-12 4.161e-11 -6.65929e-13 7.76055e-13 -7.73091 5.47488 -0.417314 4.16161e-11 -6.68215e-13 7.60153e-13 -2.90554 0.965183 -0.102902 4.16075e-11 -6.68314e-13 7.63333e-13 -10.2786 0.731801 -0.0259123 4.16211e-11 -6.65531e-13 7.60153e-13 -2.22167 -0.733487 0.20892 -2.03217e-16 0.0 -3.88251e-19 2.20896 -7.80166 -0.224058 0.00523678 8.55962 0.13601 -0.546053 -0.766549 0.0459398 2.03217e-16 0.0 3.88251e-19 1.18452 -1.92859 -0.00255095 0.00908665 -2.07858 0.0749425 0.513132 3.99847 -0.14048
49.4764 84.9404 -172.571 -1.5945 25.2598 4.813 1.71808 -2.15538 -0.340519 0.687486 1.22362 -0.00647154 -0.337309 4.48605 -1.35445 2.67573 -8.20657 -2.02845 -0.0 0.0 0.0 -0.0 0.0 0.0 -9.72408e-15 -9.72183e-15 2.26774e-13 21.5846 6.06819 -1.89772 -4.05559 -1.81121 6.36832 -4.0868e-05 -0.18484 -0.0259769 -6.16596e-10 -4.76664e-11 9.80182e-10 -1.06741e-09 -8.28469e-11 1.69745e-09 -6.16593e-10 -4.76649e-11 9.80183e-10 7.73091 5.47488 0.417314 -6.16597e-10 -4.76657e-11 9.80192e-10 2.90554 0.965183 0.102902 -6.16591e-10 -4.76661e-11 9.80184e-10 10.2786 0.731801 0.0259123 -6.166e-10 -4.76639e-11 9.80192e-10 2.22167 -0.733487 -0.20892 -9.82268e-15 -9.72328e-15 2.26411e-13 -20.502 10.1441 -1.30975 2.93957 -1.15384 -4.7699 -0.0134144 -2.56958 0.359819 -5.27926e-10 -6.85437e-10 5.97481e-10 -9.16245e-10 -1.18821e-09 1.0294e-09 -5.27934e-10 -6.85437e-10 5.97489e-10 -7.73091 5.47488 -0.417314 -5.27926e-10 -6.85437e-10 5.97477e-10 -2.90554 0.965183 -0.102902 -5.27935e-10 -6.85437e-10 5.97479e-10 -10.2786 0.731801 -0.0259123 -5.27921e-10 -6.85435e-10 5.97474e-10 -2.22167 -0.733487 0.20892 -2.03217e-16 0.0 -3.88251e-19 0.467563 -8.36552 1.64598 0.000979967 8.5019 0.097453 -1.72446 -8.45365 -9.43258 2.03217e-16 0.0 3.88251e-19 2.57212 -0.967092 -0.270083 0.00720833 -1.8088 0.0559947 0.549107 -1.45256 0.874553
49.5096 84.9289 -172.602 -1.3647 25.2795 4.9803 1.13645 -4.43487 -0.769816 0.769716 2.50726 -0.127178 -0.46065 9.22121 -2.81346 4.84741 -16.8472 -4.31424 -0.0 0.0 0.0 -0.0 0.0 0.0 -2.66405e-14 -1.86206e-14 4.84457e-13 44.8502 12.4633 -3.97684 -7.90271 -3.64758 13.1125 -0.000346198 -0.407099 -0.0572138 -1.34821e-09 -1.09328e-10 2.08209e-09 -2.33373e-09 -1.89955e-10 3.60569e-09 -1.3482e-09 -1.09326e-10 2.08209e-09 7.73091 5.47488 0.417314 -1.34821e-09 -1.09326e-10 2.0821e-09 2.90554 0.965183 0.102902 -1.3482e-09 -1.09327e-10 2.08209e-09 10.2786 0.731801 0.0259123 -1.34821e-09 -1.09325e-10 2.0821e-09 2.22167 -0.733487 -0.20892 -2.66355e-14 -1.86198e-14 4.84187e-13 -41.6405 20.8503 -2.83582 5.83906 -2.34698 -9.81863 0.00763276 -5.2854 0.742578 -1.1617e-09 -1.44682e-09 1.28809e-09 -2.01595e-09 -2.50819e-09 2.21938e-09 -1.16171e-09 -1.44682e-09 1.28809e-09 -7.73091 5.47488 -0.417314 -1.1617e-09 -1.44682e-09 1.28809e-09 -2.90554 0.965183 -0.102902 -1.16171e-09 -1.44682e-09 1.28809e-09 -10.2786 0.731801 -0.0259123 -1.1617e-09 -1.44682e-09 1.28808e-09 -2.22167 -0.733487 0.20892 -2.03217e-16 0.0 -3.88251e-19 -1.33121 -8.95037 3.63501 -0.00361079 8.43887 0.0565636 -5.78323 -15.8602 -20.0392 2.03217e-16 0.0 3.88251e-19 4.05072 0.0472537 -0.54955 0.00544374 -1.52294 0.036007 0.797497 -7.20414 1.95915
49.5171 84.9333 -172.595 -1.3614 25.3016 4.9337 0.591386 -6.46405 -1.14904 0.8451 3.65287 -0.233094 -0.36102 13.4276 -4.16495 6.14139 -24.49 -6.621 -0.0 0.0 0.0 -0.0 0.0 0.0 -3.74186e-14 -2.90125e-14 6.79725e-13 66.011 18.1226 -5.9578 -10.9797 -5.16566 19.1763 -0.000625444 -0.554519 -0.0779341 -1.93303e-09 -1.41706e-10 2.93904e-09 -3.34594e-09 -2.46314e-10 5.08972e-09 -1.93303e-09 -1.41703e-10 2.93904e-09 7.73091 5.47488 0.417314 -1.93303e-09 -1.41702e-10 2.93904e-09 2.90554 0.965183 0.102902 -1.93303e-09 -1.41704e-10 2.93904e-09 10.2786 0.731801 0.0259123 -1.93304e-09 -1.41702e-10 2.93904e-09 2.22167 -0.733487 -0.20892 -3.73239e-14 -2.90099e-14 6.79533e-13 -59.9283 30.3635 -4.48386 8.24818 -3.36568 -14.332 0.0573244 -7.70751 1.0882 -1.66701e-09 -2.05498e-09 1.79091e-09 -2.89248e-09 -3.56233e-09 3.08556e-09 -1.66702e-09 -2.05498e-09 1.79091e-09 -7.73091 5.47488 -0.417314 -1.66701e-09 -2.05498e-09 1.79091e-09 -2.90554 0.965183 -0.102902 -1.66702e-09 -2.05498e-09 1.79091e-09 -10.2786 0.731801 -0.0259123 -1.66701e-09 -2.05497e-09 1.7909e-09 -2.22167 -0.733487 0.20892 -2.03217e-16 0.0 -3.88251e-19 -2.90387 -9.46188 5.40308 -0.00776924 8.38645 0.0203748 -11.811 -21.1774 -30.3171 2.03217e-16 0.0 3.88251e-19 5.37427 0.955777 -0.805145 0.00398708 -1.26925 0.0181184 1.20974 -12.339 2.9718
49.5047 84.927 -172.606 -1.3849 25.2938 4.9868 0.203521 -7.86861 -1.39658 0.892994 4.45343 -0.301538 -0.168322 16.3412 -5.15101 6.61688 -29.7603 -8.47463 -0.0 0.0 0.0 -0.0 0.0 0.0 -3.28505e-14 -4.31374e-14 7.18954e-13 81.0022 22.0201 -7.44106 -12.9536 -6.14035 23.4715 -0.000325106 -0.51484 -0.072358 -2.15089e-09 -1.00875e-10 3.18355e-09 -3.72289e-09 -1.75802e-10 5.51321e-09 -2.15089e-09 -1.00871e-10 3.18355e-09 7.73091 5.47488 0.417314 -2.15089e-09 -1.0087e-10 3.18356e-09 2.90554 0.965183 0.102902 -2.15089e-09 -1.00872e-10 3.18355e-09 10.2786 0.731801 0.0259123 -2.15089e-09 -1.0087e-10 3.18356e-09 2.22167 -0.733487 -0.20892 -3.27009e-14 -4.31338e-14 7.18805e-13 -72.2525 36.9581 -5.92137 9.83145 -4.03957 -17.4858 0.10953 -9.39651 1.33268 -1.85114e-09 -2.28004e-09 1.82427e-09 -3.21105e-09 -3.95189e-09 3.14223e-09 -1.85115e-09 -2.28005e-09 1.82427e-09 -7.73091 5.47488 -0.417314 -1.85114e-09 -2.28004e-09 1.82427e-09 -2.90554 0.965183 -0.102902 -1.85114e-09 -2.28004e-09 1.82427e-09 -10.2786 0.731801 -0.0259123 -1.85113e-09 -2.28004e-09 1.82426e-09 -2.22167 -0.733487 0.20892 -2.03217e-16 0.0 -3.88251e-19 -3.99007 -9.81429 6.60623 -0.0106664 8.36056 -0.00408886 -17.2041 -23.8182 -37.9171 2.03217e-16 0.0 3.88251e-19 6.29184 1.59989 -1.00085 0.00292197 -1.096 0.00546472 1.61723 -15.948 3.73131
49.5341 84.9375 -172.596 -1.3161 25.3511 4.9164 0.06828 -8.3974 -1.44962 0.896648 4.77395 -0.315731 -0.0657903 17.4619 -5.55356 6.68965 -31.8042 -9.28361 -0.0 0.0 0.0 -0.0 0.0 0.0 3.69876e-16 -6.66117e-14 4.82627e-13 86.9102 23.5053 -8.03947 -13.7373 -6.53478 25.2679 0.000601155 -0.18413 -0.0258799 -1.75553e-09 7.72686e-11 2.39927e-09 -3.03836e-09 1.32714e-10 4.15512e-09 -1.75553e-09 7.72729e-11 2.39927e-09 7.73091 5.47488 0.417314 -1.75553e-09 7.72732e-11 2.39928e-09 2.90554 0.965183 0.102902 -1.75553e-09 7.72731e-11 2.39927e-09 10.2786 0.731801 0.0259123 -1.75554e-09 7.72748e-11 2.39928e-09 2.22167 -0.733487 -0.20892 5.28547e-16 -6.66082e-14 4.82467e-13 -76.9345 39.5134 -6.60769 10.4293 -4.29316 -18.7205 0.13391 -10.0558 1.42906 -1.51936e-09 -1.87417e-09 1.06309e-09 -2.63324e-09 -3.24684e-09 1.82875e-09 -1.51937e-09 -1.87418e-09 1.06309e-09 -7.73091 5.47488 -0.417314 -1.51936e-09 -1.87417e-09 1.06309e-09 -2.90554 0.965183 -0.102902 -1.51937e-09 -1.87417e-09 1.06309e-09 -10.2786 0.731801 -0.0259123 -1.51936e-09 -1.87417e-09 1.06309e-09 -2.22167 -0.733487 0.20892 -2.03217e-16 0.0 -3.88251e-19 -4.4307 -9.95654 7.00261 -0.0117045 8.37484 -0.0118866 -19.4295 -24.4984 -40.8611 2.03217e-16 0.0 3.88251e-19 6.63183 1.87736 -1.11755 0.00224239 -1.03626 0.000205034 1.82421 -17.4447 4.07975
